PathFileType	4	(X/Y/Z)	l_comf_01_markers.trc
DataRate	CameraRate	NumFrames	NumMarkers	Units	OrigDataRate	OrigDataStartFrame	OrigNumFrames
100.000000	100.000000	4	96	mm	100.000000	364	973
Frame#	Time	Torso1			Torso2			Torso3			RFemur1			RFemur2			RFemur3			RFemur4			LFemur1			LFemur2			LFemur4			RTibia1			RTibia2			RTibia3			RTibia4			LTibia2			LTibia3			LTibia4			LFoot1			LFoot2			LFoot3			RFoot2			RFoot3			LFemur3			LTibia1			RFoot1			Pelvis3			Pelvis4			Torso4			Pelvis1			Pelvis2			*30			*31			*32			*33			*34			*35			*36			*37			*38			*39			*40			*41			*42			*43			*44			*45			*46			*47			*48			*49			*50			*51			*52			*53			*54			*55			*56			*57			*58			*59			*60			*61			*62			*63			*64			Pelvis_RFemur_score			Pelvis_LFemur_score			RFemur_RTibia_score			RFemur_RTibia_sara			LFemur_LTibia_score			LFemur_LTibia_sara			RKnee			LKnee			RTibia_RFoot_score			LTibia_LFoot_score			USERMO0			USERMO1			USERMO2			USERMO3			USERMO4			USERMO5			USERMO6			USERMO7			USERMO8			USERMO9			USERMO10			USERMO11			USERMO12			USERMO13			USERMO14			USERMO15			USERMO16			USERMO17			USERMO18			USERMO19			USERMO20			
		X1	Y1	Z1	X2	Y2	Z2	X3	Y3	Z3	X4	Y4	Z4	X5	Y5	Z5	X6	Y6	Z6	X7	Y7	Z7	X8	Y8	Z8	X9	Y9	Z9	X10	Y10	Z10	X11	Y11	Z11	X12	Y12	Z12	X13	Y13	Z13	X14	Y14	Z14	X15	Y15	Z15	X16	Y16	Z16	X17	Y17	Z17	X18	Y18	Z18	X19	Y19	Z19	X20	Y20	Z20	X21	Y21	Z21	X22	Y22	Z22	X23	Y23	Z23	X24	Y24	Z24	X25	Y25	Z25	X26	Y26	Z26	X27	Y27	Z27	X28	Y28	Z28	X29	Y29	Z29	X30	Y30	Z30	X31	Y31	Z31	X32	Y32	Z32	X33	Y33	Z33	X34	Y34	Z34	X35	Y35	Z35	X36	Y36	Z36	X37	Y37	Z37	X38	Y38	Z38	X39	Y39	Z39	X40	Y40	Z40	X41	Y41	Z41	X42	Y42	Z42	X43	Y43	Z43	X44	Y44	Z44	X45	Y45	Z45	X46	Y46	Z46	X47	Y47	Z47	X48	Y48	Z48	X49	Y49	Z49	X50	Y50	Z50	X51	Y51	Z51	X52	Y52	Z52	X53	Y53	Z53	X54	Y54	Z54	X55	Y55	Z55	X56	Y56	Z56	X57	Y57	Z57	X58	Y58	Z58	X59	Y59	Z59	X60	Y60	Z60	X61	Y61	Z61	X62	Y62	Z62	X63	Y63	Z63	X64	Y64	Z64	X65	Y65	Z65	X66	Y66	Z66	X67	Y67	Z67	X68	Y68	Z68	X69	Y69	Z69	X70	Y70	Z70	X71	Y71	Z71	X72	Y72	Z72	X73	Y73	Z73	X74	Y74	Z74	X75	Y75	Z75	X76	Y76	Z76	X77	Y77	Z77	X78	Y78	Z78	X79	Y79	Z79	X80	Y80	Z80	X81	Y81	Z81	X82	Y82	Z82	X83	Y83	Z83	X84	Y84	Z84	X85	Y85	Z85	X86	Y86	Z86	X87	Y87	Z87	X88	Y88	Z88	X89	Y89	Z89	X90	Y90	Z90	X91	Y91	Z91	X92	Y92	Z92	X93	Y93	Z93	X94	Y94	Z94	X95	Y95	Z95	X96	Y96	Z96	

365	3.64	nan	nan	nan	nan	nan	nan	nan	nan	nan	nan	nan	nan	nan	nan	nan	nan	nan	nan	nan	nan	nan	nan	nan	nan	nan	nan	nan	nan	nan	nan	nan	nan	nan	nan	nan	nan	nan	nan	nan	nan	nan	nan	nan	nan	nan	nan	nan	nan	nan	nan	nan	nan	nan	nan	nan	nan	nan	nan	nan	nan	nan	nan	nan	nan	nan	nan	nan	nan	nan	nan	nan	nan	nan	nan	nan	nan	nan	nan	nan	nan	nan	nan	nan	nan	nan	nan	nan	nan	nan	nan	nan	nan	nan	-89.70918273925781	-4422.0439453125	1378.5263671875	38.53387832641602	-4541.9970703125	507.1942749023438	-238.4039306640625	-4378.11328125	526.7378540039062	1514.779052734375	1874.90380859375	632.4829711914062	-241.1045532226562	-4393.7587890625	280.1936340332031	-33.88044357299805	-4416.58740234375	-11.19620323181152	9.84955883026123	-4472.4541015625	-13.46942138671875	31.480224609375	-4541.73193359375	377.1550598144531	-239.8164825439453	-4340.82275390625	381.8908386230469	1445.636474609375	1364.1572265625	518.2874145507812	78.72770690917969	-4460.24853515625	1407.021118164062	1628.136108398438	1821.307373046875	657.9404907226562	-249.3685455322266	-4393.5556640625	341.7355041503906	-267.4058227539062	-4460.0830078125	1424.126586914062	-227.7227172851562	-4394.00537109375	3.646114110946655	-190.0941467285156	-4351.99072265625	-1.99433708190918	nan	nan	nan	2072.666748046875	1753.41064453125	494.1722412109375	57.41780471801758	-4507.52734375	553.6965942382812	25.92647361755371	-4544.57275390625	277.7601318359375	-263.2437438964844	-5160.06005859375	500.3811340332031	1635.051635742188	1800.7529296875	659.0052490234375	-252.5394287109375	-4386.826171875	597.815185546875	nan	nan	nan	1463.582275390625	1824.00146484375	577.3751831054688	nan	nan	nan	27.12242126464844	-4560.77294921875	323.7414855957031	nan	nan	nan	nan	nan	nan	-252.015625	-4356.6474609375	614.6319580078125	nan	nan	nan	nan	nan	nan	nan	nan	nan	nan	nan	nan	nan	nan	nan	nan	nan	nan	nan	nan	nan	nan	nan	nan	nan	nan	nan	nan	nan	nan	nan	nan	nan	nan	nan	nan	nan	nan	nan	nan	nan	nan	nan	nan	nan	nan	nan	nan	nan	nan	nan	nan	nan	nan	nan	nan	nan	nan	nan	nan	nan	nan	nan	nan	nan	nan	nan	nan	nan	nan	nan	nan	nan	nan	nan	nan	nan	nan	nan	nan	nan	nan	nan	nan	nan	nan	nan	nan	nan	nan	nan	nan	nan	nan	nan	nan	nan	nan	nan	nan	nan	nan	nan	nan	nan	
366	3.65	nan	nan	nan	nan	nan	nan	nan	nan	nan	nan	nan	nan	nan	nan	nan	nan	nan	nan	nan	nan	nan	nan	nan	nan	nan	nan	nan	nan	nan	nan	nan	nan	nan	nan	nan	nan	nan	nan	nan	nan	nan	nan	nan	nan	nan	nan	nan	nan	nan	nan	nan	nan	nan	nan	nan	nan	nan	nan	nan	nan	nan	nan	nan	nan	nan	nan	nan	nan	nan	nan	nan	nan	nan	nan	nan	nan	nan	nan	nan	nan	nan	nan	nan	nan	nan	nan	nan	nan	nan	nan	1497.841918945312	1841.786376953125	614.4508666992188	-88.22923278808594	-4398.4111328125	1378.784301757812	39.56432342529297	-4537.46728515625	508.2997436523438	-235.1040496826172	-4361.4814453125	527.6053466796875	nan	nan	nan	-233.7521362304688	-4358.267578125	278.5706176757812	-33.7320671081543	-4416.341796875	-11.16809940338135	9.711084365844727	-4472.78369140625	-12.67849254608154	35.00874328613281	-4533.796875	379.1812133789062	-240.2789764404297	-4323.8173828125	380.1618957519531	1445.638916015625	1364.132080078125	518.2217407226562	78.93015289306641	-4459.70361328125	1405.05419921875	1628.120361328125	1821.341552734375	657.978759765625	-244.8725128173828	-4367.59814453125	339.7040100097656	-264.5549926757812	-4448.03759765625	1422.930297851562	-221.8277435302734	-4344.75634765625	2.136705160140991	-184.7021942138672	-4300.359375	-1.07811164855957	-252.2038269042969	-4404.43310546875	621.9364013671875	2072.6923828125	1753.538452148438	493.7966613769531	58.96577453613281	-4502.26904296875	555.5668334960938	26.35800361633301	-4544.29638671875	277.8004455566406	nan	nan	nan	1634.90478515625	1800.88134765625	659.0397338867188	nan	nan	nan	73.25643157958984	-4506.82177734375	616.2962036132812	nan	nan	nan	nan	nan	nan	28.70600128173828	-4557.6962890625	323.6293640136719	nan	nan	nan	nan	nan	nan	-248.2921447753906	-4340.09716796875	615.214111328125	nan	nan	nan	nan	nan	nan	nan	nan	nan	nan	nan	nan	nan	nan	nan	nan	nan	nan	nan	nan	nan	nan	nan	nan	nan	nan	nan	nan	nan	nan	nan	nan	nan	nan	nan	nan	nan	nan	nan	nan	nan	nan	nan	nan	nan	nan	nan	nan	nan	nan	nan	nan	nan	nan	nan	nan	nan	nan	nan	nan	nan	nan	nan	nan	nan	nan	nan	nan	nan	nan	nan	nan	nan	nan	nan	nan	nan	nan	nan	nan	nan	nan	nan	nan	nan	nan	nan	nan	nan	nan	nan	nan	nan	nan	nan	nan	nan	nan	nan	nan	nan	nan	nan	nan	nan	
367	3.66	nan	nan	nan	nan	nan	nan	nan	nan	nan	nan	nan	nan	nan	nan	nan	nan	nan	nan	nan	nan	nan	nan	nan	nan	nan	nan	nan	nan	nan	nan	nan	nan	nan	nan	nan	nan	nan	nan	nan	nan	nan	nan	nan	nan	nan	nan	nan	nan	nan	nan	nan	nan	nan	nan	nan	nan	nan	nan	nan	nan	nan	nan	nan	nan	nan	nan	nan	nan	nan	nan	nan	nan	nan	nan	nan	nan	nan	nan	nan	nan	nan	nan	nan	nan	nan	nan	nan	nan	nan	nan	1497.815307617188	1841.765991210938	614.3851928710938	-85.63877105712891	-4394.322265625	1376.729614257812	42.83041000366211	-4531.439453125	508.9928588867188	-232.3949584960938	-4341.474609375	528.5199584960938	-231.7681732177734	-4310.90185546875	376.2683410644531	-230.3750305175781	-4333.33935546875	272.6823425292969	-33.52370071411133	-4416.19580078125	-11.26108646392822	9.807102203369141	-4472.47265625	-12.9833345413208	36.220458984375	-4530.67724609375	379.4654235839844	-249.0978393554688	-4325.05078125	372.5101928710938	1445.576538085938	1364.23095703125	518.2036743164062	80.74186706542969	-4436.24609375	1405.498168945312	1628.113403320312	1821.357299804688	657.9848022460938	-240.4872436523438	-4340.6865234375	335.69091796875	-264.3219604492188	-4433.474609375	1420.08740234375	-215.9215545654297	-4287.798828125	3.485108613967896	-178.9819946289062	-4239.765625	4.733540534973145	-250.0090637207031	-4385.9697265625	622.4385375976562	2072.601318359375	1753.672607421875	493.9972839355469	60.65417861938477	-4496.4462890625	554.1986694335938	26.9527645111084	-4542.908203125	277.8689880371094	-3557.171875	-673.5752563476562	994.6201782226562	1634.9228515625	1800.878051757812	658.9718627929688	-3552.30517578125	-669.5044555664062	971.6932983398438	79.51670837402344	-4486.6201171875	617.7518920898438	nan	nan	nan	nan	nan	nan	29.17539215087891	-4555.3017578125	324.0661010742188	nan	nan	nan	nan	nan	nan	-244.1273345947266	-4321.8662109375	615.6578979492188	nan	nan	nan	nan	nan	nan	nan	nan	nan	nan	nan	nan	nan	nan	nan	nan	nan	nan	nan	nan	nan	nan	nan	nan	nan	nan	nan	nan	nan	nan	nan	nan	nan	nan	nan	nan	nan	nan	nan	nan	nan	nan	nan	nan	nan	nan	nan	nan	nan	nan	nan	nan	nan	nan	nan	nan	nan	nan	nan	nan	nan	nan	nan	nan	nan	nan	nan	nan	nan	nan	nan	nan	nan	nan	nan	nan	nan	nan	nan	nan	nan	nan	nan	nan	nan	nan	nan	nan	nan	nan	nan	nan	nan	nan	nan	nan	nan	nan	nan	nan	nan	nan	nan	nan	nan	
368	3.67	nan	nan	nan	nan	nan	nan	nan	nan	nan	nan	nan	nan	nan	nan	nan	nan	nan	nan	nan	nan	nan	nan	nan	nan	nan	nan	nan	nan	nan	nan	nan	nan	nan	nan	nan	nan	nan	nan	nan	nan	nan	nan	nan	nan	nan	nan	nan	nan	nan	nan	nan	nan	nan	nan	nan	nan	nan	nan	nan	nan	nan	nan	nan	nan	nan	nan	nan	nan	nan	nan	nan	nan	nan	nan	nan	nan	nan	nan	nan	nan	nan	nan	nan	nan	nan	nan	nan	nan	nan	nan	1497.862060546875	1841.7587890625	614.339599609375	-84.32457733154297	-4368.74560546875	1376.270751953125	44.1591682434082	-4527.03955078125	508.7924499511719	-228.7496337890625	-4324.57275390625	528.8980102539062	nan	nan	nan	-224.9721221923828	-4301.65673828125	269.1117248535156	-33.42082977294922	-4415.650390625	-11.44879055023193	9.948822021484375	-4471.875	-13.72437858581543	36.93552780151367	-4527.529296875	379.2357482910156	nan	nan	nan	1445.635131835938	1364.244506835938	518.203369140625	82.50142669677734	-4421.900390625	1404.42919921875	1628.1337890625	1821.32568359375	657.9076538085938	-237.5955200195312	-4301.2255859375	333.9231262207031	-260.9306945800781	-4418.4208984375	1419.559326171875	-208.8565826416016	-4237.12744140625	3.826067447662354	-171.0925598144531	-4197.2978515625	5.542617321014404	nan	nan	nan	2072.637939453125	1753.432861328125	494.3482360839844	60.59347534179688	-4482.55859375	549.6466674804688	26.17134857177734	-4554.48974609375	274.7264709472656	nan	nan	nan	nan	nan	nan	nan	nan	nan	nan	nan	nan	-242.9858703613281	-4339.7578125	599.4281616210938	-228.29052734375	-4276.65869140625	376.4187316894531	29.65521049499512	-4552.85986328125	324.4776000976562	1584.168701171875	1909.354248046875	704.31884765625	nan	nan	nan	-240.4532012939453	-4305.42431640625	615.5106811523438	nan	nan	nan	nan	nan	nan	nan	nan	nan	nan	nan	nan	nan	nan	nan	nan	nan	nan	nan	nan	nan	nan	nan	nan	nan	nan	nan	nan	nan	nan	nan	nan	nan	nan	nan	nan	nan	nan	nan	nan	nan	nan	nan	nan	nan	nan	nan	nan	nan	nan	nan	nan	nan	nan	nan	nan	nan	nan	nan	nan	nan	nan	nan	nan	nan	nan	nan	nan	nan	nan	nan	nan	nan	nan	nan	nan	nan	nan	nan	nan	nan	nan	nan	nan	nan	nan	nan	nan	nan	nan	nan	nan	nan	nan	nan	nan	nan	nan	nan	nan	nan	nan	nan	nan	nan	
